<svg width="320" height="394" viewBox="0 0 320 394" fill="none" xmlns="http://www.w3.org/2000/svg">
<rect x="0.828125" y="0.830078" width="319.159" height="392.262" rx="7.13204" fill="#838383"/>
<path d="M141.733 220.576C140.249 220.576 138.978 220.047 137.92 218.989C136.862 217.931 136.334 216.661 136.336 215.178V177.396C136.336 175.912 136.865 174.641 137.923 173.583C138.981 172.525 140.251 171.997 141.733 171.999H179.515C181 171.999 182.271 172.528 183.329 173.586C184.386 174.644 184.915 175.914 184.913 177.396V215.178C184.913 216.663 184.384 217.934 183.326 218.992C182.268 220.05 180.998 220.578 179.515 220.576H141.733ZM141.733 215.178H179.515V177.396H141.733V215.178ZM144.432 209.781H176.817L166.696 196.287L158.6 207.082L152.528 198.986L144.432 209.781Z" fill="#6E6E6E"/>
</svg>
