<svg xmlns="http://www.w3.org/2000/svg" width="63" height="63" viewBox="0 0 63 63" fill="none">
  <path d="M42.1736 23.6107C42.3617 23.4292 42.5118 23.212 42.6151 22.9719C42.7184 22.7317 42.7728 22.4734 42.7752 22.212C42.7776 21.9506 42.7279 21.6913 42.629 21.4493C42.5302 21.2073 42.3841 20.9875 42.1993 20.8025C42.0146 20.6176 41.7948 20.4713 41.5529 20.3722C41.311 20.2731 41.0518 20.2231 40.7904 20.2253C40.529 20.2274 40.2706 20.2816 40.0304 20.3847C39.7901 20.4878 39.5728 20.6376 39.3911 20.8256L31.5004 28.7137L23.6122 20.8256C23.432 20.6322 23.2146 20.477 22.9731 20.3694C22.7316 20.2618 22.471 20.2039 22.2066 20.1993C21.9423 20.1946 21.6797 20.2432 21.4345 20.3423C21.1894 20.4413 20.9667 20.5887 20.7798 20.7756C20.5928 20.9626 20.4454 21.1852 20.3464 21.4304C20.2474 21.6755 20.1988 21.9381 20.2034 22.2025C20.2081 22.4668 20.266 22.7275 20.3736 22.969C20.4812 23.2105 20.6363 23.4278 20.8297 23.6081L28.7126 31.4988L20.8245 39.387C20.4767 39.7602 20.2874 40.2538 20.2964 40.7638C20.3054 41.2739 20.512 41.7605 20.8727 42.1212C21.2334 42.4819 21.7201 42.6885 22.2301 42.6975C22.7402 42.7065 23.2338 42.5172 23.607 42.1695L31.5004 34.2813L39.3885 42.1721C39.7617 42.5198 40.2553 42.7092 40.7654 42.7002C41.2754 42.6912 41.762 42.4846 42.1227 42.1238C42.4834 41.7631 42.6901 41.2765 42.6991 40.7665C42.7081 40.2564 42.5187 39.7628 42.171 39.3896L34.2881 31.4988L42.1736 23.6107Z" fill="#434343"/>
</svg>