<svg width="32" height="33" viewBox="0 0 32 33" fill="none" xmlns="http://www.w3.org/2000/svg">
<g clip-path="url(#clip0_1317_636)">
<path d="M15.9948 6.14307C9.32812 6.14307 3.63479 10.2897 1.32812 16.1431C3.63479 21.9964 9.32812 26.1431 15.9948 26.1431C22.6615 26.1431 28.3548 21.9964 30.6615 16.1431C28.3548 10.2897 22.6615 6.14307 15.9948 6.14307ZM15.9948 22.8097C12.3148 22.8097 9.32812 19.8231 9.32812 16.1431C9.32812 12.4631 12.3148 9.4764 15.9948 9.4764C19.6748 9.4764 22.6615 12.4631 22.6615 16.1431C22.6615 19.8231 19.6748 22.8097 15.9948 22.8097ZM15.9948 12.1431C13.7815 12.1431 11.9948 13.9297 11.9948 16.1431C11.9948 18.3564 13.7815 20.1431 15.9948 20.1431C18.2081 20.1431 19.9948 18.3564 19.9948 16.1431C19.9948 13.9297 18.2081 12.1431 15.9948 12.1431Z" fill="#49D043"/>
</g>
<defs>
<clipPath id="clip0_1317_636">
<rect width="32" height="32" fill="white" transform="translate(0 0.143066)"/>
</clipPath>
</defs>
</svg>
