<svg xmlns="http://www.w3.org/2000/svg" width="19" height="20" viewBox="0 0 19 20" fill="none">
  <path d="M9.73177 4.0625C5.77344 4.0625 2.39302 6.52458 1.02344 10C2.39302 13.4754 5.77344 15.9375 9.73177 15.9375C13.6901 15.9375 17.0705 13.4754 18.4401 10C17.0705 6.52458 13.6901 4.0625 9.73177 4.0625ZM9.73177 13.9583C7.54677 13.9583 5.77344 12.185 5.77344 10C5.77344 7.815 7.54677 6.04167 9.73177 6.04167C11.9168 6.04167 13.6901 7.815 13.6901 10C13.6901 12.185 11.9168 13.9583 9.73177 13.9583ZM9.73177 7.625C8.4176 7.625 7.35677 8.68583 7.35677 10C7.35677 11.3142 8.4176 12.375 9.73177 12.375C11.0459 12.375 12.1068 11.3142 12.1068 10C12.1068 8.68583 11.0459 7.625 9.73177 7.625Z" fill="white"/>
</svg>