<svg xmlns="http://www.w3.org/2000/svg" width="40" height="40" viewBox="0 0 40 40" fill="none">
  <path d="M32.0705 4.00024H8.80207C6.12655 4.00024 3.9375 6.1893 3.9375 8.86481V32.1357C3.9375 34.8112 6.12655 37.0002 8.80207 37.0002H32.0729C34.7484 37.0002 36.9375 34.8112 36.9375 32.1357V8.86481C36.9351 6.1893 34.7484 4.00024 32.0705 4.00024ZM31.758 21.6136H27.842V35.7817H21.9826V21.6136H19.0517V16.7296H21.9826V13.7987C21.9826 9.81462 23.6366 7.44436 28.343 7.44436H32.2554V12.3272H29.8085C27.9794 12.3272 27.8578 13.0119 27.8578 14.2852L27.842 16.7296H32.2748L31.758 21.6136Z" fill="#49D043"/>
</svg>