<svg xmlns="http://www.w3.org/2000/svg" width="40" height="40" viewBox="0 0 40 40" fill="none">
  <path fill-rule="evenodd" clip-rule="evenodd" d="M10.447 4.00024C8.57187 4.00024 6.77348 4.74496 5.4473 6.07063C4.12112 7.3963 3.37572 9.1944 3.375 11.0695V29.9282C3.375 31.8038 4.12008 33.6026 5.44634 34.9289C6.7726 36.2552 8.5714 37.0002 10.447 37.0002H29.3057C31.1808 36.9995 32.9789 36.2541 34.3046 34.9279C35.6303 33.6018 36.375 31.8034 36.375 29.9282V11.0695C36.3743 9.19487 35.6292 7.39718 34.3037 6.07159C32.9781 4.74599 31.1804 4.00096 29.3057 4.00024H10.447ZM31.3399 11.0804C31.3399 11.6206 31.1253 12.1387 30.7433 12.5207C30.3613 12.9027 29.8432 13.1173 29.303 13.1173C28.7628 13.1173 28.2447 12.9027 27.8627 12.5207C27.4807 12.1387 27.2661 11.6206 27.2661 11.0804C27.2661 10.5402 27.4807 10.0221 27.8627 9.64012C28.2447 9.25813 28.7628 9.04353 29.303 9.04353C29.8432 9.04353 30.3613 9.25813 30.7433 9.64012C31.1253 10.0221 31.3399 10.5402 31.3399 11.0804ZM19.8791 14.85C18.3809 14.85 16.9441 15.4451 15.8847 16.5045C14.8253 17.5639 14.2302 19.0007 14.2302 20.4989C14.2302 21.9971 14.8253 23.4339 15.8847 24.4933C16.9441 25.5527 18.3809 26.1478 19.8791 26.1478C21.3773 26.1478 22.8141 25.5527 23.8735 24.4933C24.9328 23.4339 25.528 21.9971 25.528 20.4989C25.528 19.0007 24.9328 17.5639 23.8735 16.5045C22.8141 15.4451 21.3773 14.85 19.8791 14.85ZM11.5116 20.4989C11.5116 18.2804 12.3929 16.1528 13.9616 14.5841C15.5303 13.0154 17.6579 12.1341 19.8764 12.1341C22.0948 12.1341 24.2224 13.0154 25.7911 14.5841C27.3598 16.1528 28.2411 18.2804 28.2411 20.4989C28.2411 22.7174 27.3598 24.845 25.7911 26.4137C24.2224 27.9823 22.0948 28.8636 19.8764 28.8636C17.6579 28.8636 15.5303 27.9823 13.9616 26.4137C12.3929 24.845 11.5116 22.7174 11.5116 20.4989Z" fill="#49D043"/>
</svg>