<svg xmlns="http://www.w3.org/2000/svg" width="34" height="34" viewBox="0 0 34 34" fill="none">
  <g clip-path="url(#clip0_1317_270)">
    <path d="M1.66406 3.3441C1.66406 2.04959 2.73975 1.00049 4.06698 1.00049H31.9818C33.309 1.00049 34.3847 2.04959 34.3847 3.3441V31.3775C34.3847 32.672 33.309 33.7211 31.9818 33.7211H4.06698C2.73975 33.7211 1.66406 32.672 1.66406 31.3775V3.3441ZM11.7727 28.3918V13.6163H6.86255V28.3918H11.7727ZM9.31865 11.5979C11.0303 11.5979 12.0958 10.4649 12.0958 9.04568C12.0651 7.59574 11.0324 6.49347 9.35137 6.49347C7.67035 6.49347 6.57216 7.59779 6.57216 9.04568C6.57216 10.4649 7.63762 11.5979 9.28593 11.5979H9.31865ZM19.3557 28.3918V20.14C19.3557 19.6983 19.3884 19.2566 19.5193 18.9416C19.8731 18.0602 20.6809 17.1461 22.0388 17.1461C23.8159 17.1461 24.5256 18.4999 24.5256 20.4877V28.3918H29.4357V19.9171C29.4357 15.3771 27.0144 13.2666 23.7832 13.2666C21.1778 13.2666 20.0101 14.6982 19.3557 15.7064V15.7575H19.323L19.3557 15.7064V13.6163H14.4476C14.509 15.0029 14.4476 28.3918 14.4476 28.3918H19.3557Z" fill="#49D043"/>
  </g>
  <defs>
    <clipPath id="clip0_1317_270">
      <rect x="0.664062" y="0.799316" width="33" height="33" rx="6.13512" fill="white"/>
    </clipPath>
  </defs>
</svg>