<svg xmlns="http://www.w3.org/2000/svg" width="43" height="49" viewBox="0 0 43 49" fill="none">
  <g clip-path="url(#clip0_1317_276)">
    <path fill-rule="evenodd" clip-rule="evenodd" d="M17.4453 8C18.8561 8 20.3031 8.04538 21.7056 8.11963L23.3622 8.21862L24.9479 8.33619L26.4329 8.462L27.7892 8.594C29.261 8.73482 30.646 9.51995 31.7005 10.8113C32.755 12.1026 33.4114 13.8174 33.5543 15.6539L33.6203 16.5305L33.744 18.4074C33.8595 20.3523 33.9453 22.4726 33.9453 24.5C33.9453 26.5274 33.8595 28.6477 33.744 30.5926L33.6203 32.4695C33.5988 32.7706 33.5774 33.0614 33.5543 33.3461C33.4114 35.183 32.7547 36.898 31.6999 38.1894C30.6451 39.4807 29.2597 40.2656 27.7875 40.406L26.4345 40.5359L24.9495 40.6638L23.3622 40.7814L21.7056 40.8804C20.2863 40.9575 18.8659 40.9974 17.4453 41C16.0247 40.9974 14.6043 40.9575 13.185 40.8804L11.5284 40.7814L9.94276 40.6638L8.45776 40.5359L7.10146 40.406C5.62958 40.2652 4.24457 39.48 3.19009 38.1887C2.13561 36.8974 1.47921 35.1826 1.33636 33.3461L1.27036 32.4695L1.14661 30.5926C1.02045 28.5655 0.953305 26.5333 0.945312 24.5C0.945312 22.4726 1.03111 20.3523 1.14661 18.4074L1.27036 16.5305C1.29181 16.2294 1.31326 15.9386 1.33636 15.6539C1.47915 13.8177 2.13532 12.1032 3.18946 10.8119C4.24361 9.52062 5.62822 8.73529 7.09981 8.594L8.45446 8.462L9.93946 8.33619L11.5268 8.21862L13.1834 8.11963C14.6032 8.04256 16.0241 8.00267 17.4453 8ZM14.1453 19.4984V29.5016C14.1453 30.4544 14.9703 31.0484 15.6303 30.5741L22.5603 25.5725C22.7111 25.464 22.8364 25.3077 22.9235 25.1194C23.0106 24.9312 23.0564 24.7175 23.0564 24.5C23.0564 24.2825 23.0106 24.0688 22.9235 23.8806C22.8364 23.6923 22.7111 23.536 22.5603 23.4275L15.6303 18.428C15.4798 18.3194 15.309 18.2622 15.1352 18.2622C14.9613 18.2622 14.7906 18.3195 14.64 18.4282C14.4895 18.5369 14.3646 18.6932 14.2777 18.8815C14.1909 19.0697 14.1452 19.2832 14.1453 19.5005V19.4984Z" fill="#49D043"/>
  </g>
  <defs>
    <clipPath id="clip0_1317_276">
      <rect width="41.3604" height="48.5984" fill="white" transform="translate(0.914062)"/>
    </clipPath>
  </defs>
</svg>