<svg xmlns="http://www.w3.org/2000/svg" width="26" height="25" viewBox="0 0 26 25" fill="none">
  <path fill-rule="evenodd" clip-rule="evenodd" d="M0.757813 12.6515C0.757813 9.40409 2.04783 6.28972 4.34407 3.99348C6.6403 1.69724 9.75467 0.407227 13.002 0.407227C16.2494 0.407227 19.3638 1.69724 21.66 3.99348C23.9563 6.28972 25.2463 9.40409 25.2463 12.6515C25.2463 15.8988 23.9563 19.0132 21.66 21.3094C19.3638 23.6057 16.2494 24.8957 13.002 24.8957C9.75467 24.8957 6.6403 23.6057 4.34407 21.3094C2.04783 19.0132 0.757813 15.8988 0.757813 12.6515ZM12.3033 17.892L19.3527 9.07941L18.0793 8.06069L12.0682 15.5721L7.81049 12.0246L6.76565 13.2784L12.3033 17.892Z" fill="#49D043"/>
</svg>