<svg width="68" height="68" viewBox="0 0 68 68" fill="none" xmlns="http://www.w3.org/2000/svg">
<circle cx="34" cy="34" r="34" fill="#49D043" fill-opacity="0.11"/>
<g clip-path="url(#clip0_1388_1170)">
<path d="M32.7845 39.0114C32.7845 38.734 32.8947 38.468 33.0909 38.2718C33.287 38.0757 33.5531 37.9655 33.8305 37.9655H42.1979V22.2766C42.1979 21.7218 41.9775 21.1897 41.5852 20.7974C41.1929 20.4051 40.6608 20.1848 40.106 20.1848H26.373L19.1875 27.3598V47.3788C19.1875 47.9336 19.4079 48.4657 19.8002 48.858C20.1925 49.2503 20.7246 49.4707 21.2794 49.4707H40.106C40.6608 49.4707 41.1929 49.2503 41.5852 48.858C41.9775 48.4657 42.1979 47.9336 42.1979 47.3788V40.0573H33.8305C33.5531 40.0573 33.287 39.9471 33.0909 39.751C32.8947 39.5548 32.7845 39.2888 32.7845 39.0114ZM27.5549 28.5522H21.2794V28.2175L27.2307 22.2766H27.5549V28.5522Z" fill="#FFB912"/>
<path d="M45.66 33.1011C45.4599 32.9298 45.2025 32.8402 44.9393 32.8504C44.676 32.8606 44.4263 32.9697 44.2401 33.156C44.0538 33.3422 43.9447 33.5919 43.9345 33.8552C43.9243 34.1184 44.0139 34.3758 44.1852 34.5759L47.5845 37.9647H42.1875V40.0565H47.6159L44.1852 43.4871C44.0757 43.5809 43.9868 43.6963 43.924 43.8261C43.8612 43.9558 43.826 44.0972 43.8204 44.2412C43.8148 44.3852 43.8391 44.5289 43.8917 44.6631C43.9443 44.7973 44.024 44.9192 44.126 45.0212C44.2279 45.1231 44.3498 45.2028 44.484 45.2554C44.6182 45.308 44.7619 45.3323 44.9059 45.3267C45.05 45.3212 45.1913 45.2859 45.3211 45.2231C45.4508 45.1603 45.5662 45.0714 45.66 44.9619L51.6008 39.0106L45.66 33.1011Z" fill="#FFB912"/>
</g>
<defs>
<clipPath id="clip0_1388_1170">
<rect width="37.6533" height="37.6533" fill="white" transform="translate(15 16.001)"/>
</clipPath>
</defs>
</svg>
