<svg width="68" height="68" viewBox="0 0 68 68" fill="none" xmlns="http://www.w3.org/2000/svg">
<circle cx="34" cy="34" r="34" fill="#49D043" fill-opacity="0.11"/>
<path d="M38 15H23C21.6739 15 20.4021 15.5268 19.4645 16.4645C18.5268 17.4021 18 18.6739 18 20V45C18 46.3261 18.5268 47.5979 19.4645 48.5355C20.4021 49.4732 21.6739 50 23 50H28.6425C28.0057 49.2289 27.455 48.3906 27 47.5H23C22.337 47.5 21.7011 47.2366 21.2322 46.7678C20.7634 46.2989 20.5 45.663 20.5 45V44.9925H26.015C25.3479 42.6376 25.3214 40.1473 25.9384 37.7788C26.5553 35.4102 27.7933 33.2493 29.5245 31.5191C31.2557 29.7889 33.4174 28.5522 35.7863 27.9366C38.1552 27.321 40.6455 27.349 43 28.0175V20C43 18.6739 42.4732 17.4021 41.5355 16.4645C40.5979 15.5268 39.3261 15 38 15ZM23 21.25H38C38.3315 21.25 38.6495 21.3817 38.8839 21.6161C39.1183 21.8505 39.25 22.1685 39.25 22.5V25C39.25 25.3315 39.1183 25.6495 38.8839 25.8839C38.6495 26.1183 38.3315 26.25 38 26.25H23C22.6685 26.25 22.3505 26.1183 22.1161 25.8839C21.8817 25.6495 21.75 25.3315 21.75 25V22.5C21.75 22.1685 21.8817 21.8505 22.1161 21.6161C22.3505 21.3817 22.6685 21.25 23 21.25ZM50.5 41.25C50.5 44.2337 49.3147 47.0952 47.205 49.2049C45.0952 51.3147 42.2337 52.5 39.25 52.5C36.2663 52.5 33.4048 51.3147 31.295 49.2049C29.1853 47.0952 28 44.2337 28 41.25C28 38.2663 29.1853 35.4048 31.295 33.295C33.4048 31.1853 36.2663 30 39.25 30C42.2337 30 45.0952 31.1853 47.205 33.295C49.3147 35.4048 50.5 38.2663 50.5 41.25ZM35.5 44.9875C35.5 45.2087 35.5586 45.4259 35.6699 45.617C35.7812 45.8081 35.9413 45.9662 36.1337 46.0753C36.3261 46.1843 36.544 46.2404 36.7652 46.2377C36.9863 46.235 37.2028 46.1737 37.3925 46.06L43.6425 42.3175C43.8279 42.2065 43.9813 42.0494 44.0879 41.8614C44.1944 41.6734 44.2504 41.4611 44.2504 41.245C44.2504 41.0289 44.1944 40.8166 44.0879 40.6286C43.9813 40.4406 43.8279 40.2835 43.6425 40.1725L37.3925 36.43C37.203 36.3164 36.9867 36.2551 36.7658 36.2523C36.5449 36.2495 36.3271 36.3054 36.1348 36.4141C35.9424 36.5229 35.7824 36.6806 35.6709 36.8714C35.5593 37.0621 35.5004 37.279 35.5 37.5V44.9875Z" fill="#FFB912"/>
</svg>
