<svg width="68" height="68" viewBox="0 0 68 68" fill="none" xmlns="http://www.w3.org/2000/svg">
<circle cx="34" cy="34" r="34" fill="#49D043" fill-opacity="0.11"/>
<path d="M48.8333 20.166C49.7837 20.166 50.6951 20.5435 51.3671 21.2155C52.0391 21.8876 52.4167 22.799 52.4167 23.7493V41.666C52.4167 43.6548 50.8221 45.2493 48.8333 45.2493H56V48.8327H13V45.2493H20.1667C19.2163 45.2493 18.3049 44.8718 17.6329 44.1998C16.9609 43.5278 16.5833 42.6164 16.5833 41.666V23.7493C16.5833 21.7606 18.1779 20.166 20.1667 20.166H48.8333ZM48.8333 23.7493H20.1667V41.666H48.8333V23.7493ZM34.5 34.4993C38.4596 34.4993 41.6667 36.1118 41.6667 38.0827V39.8743H27.3333V38.0827C27.3333 36.1118 30.5404 34.4993 34.5 34.4993ZM34.5 25.541C35.4504 25.541 36.3618 25.9185 37.0338 26.5905C37.7058 27.2626 38.0833 28.174 38.0833 29.1243C38.0833 30.0747 37.7058 30.9861 37.0338 31.6581C36.3618 32.3302 35.4504 32.7077 34.5 32.7077C32.5112 32.7077 30.9167 31.1131 30.9167 29.1243C30.9167 27.1356 32.5292 25.541 34.5 25.541Z" fill="#FFB912"/>
</svg>
